# xmcd
#
# Track frame offsets:
#	150
#	21737
#	43410
#	63382
#	85547
#	106397
#	127554
#	146142
#	168557
#
# Disc length: 2516 seconds
#
# Revision: 5
# Processed by: cddbd v1.5.2PL0 Copyright (c) Steve Scherf et al.
# Submitted via: EasyCDDAExtractor 15.3.0.1
#
DISCID=7b09d209
DTITLE=Rey Ruiz - Destino
DYEAR=1996
DGENRE=Latin
TTITLE0=Mienteme Otra Vez
TTITLE1=Aqui Estoy Yo
TTITLE2=Eso Digo Yo
TTITLE3=Cuba Y Puerto Rico
TTITLE4=Destino
TTITLE5=Saber Amar
TTITLE6=Vereda Tropical
TTITLE7=Luz De Una Estrella
TTITLE8=Mañana Por La Mañana
EXTD=
EXTT0=
EXTT1=
EXTT2=
EXTT3=
EXTT4=
EXTT5=
EXTT6=
EXTT7=
EXTT8=
PLAYORDER=
